<svg xmlns="http://www.w3.org/2000/svg" xmlns:xlink="http://www.w3.org/1999/xlink" contentStyleType="text/css" data-diagram-type="DESCRIPTION" height="1416.6667px" preserveAspectRatio="none" style="width:884px;height:1416px;" version="1.1" viewBox="0 0 884 1416" width="884.375px" zoomAndPan="magnify"><title>**Monorepo Template - System Architecture**</title><defs><linearGradient id="g2cjg5pqpeztr0" x1="50%" x2="50%" y1="0%" y2="100%"><stop offset="0%" stop-color="#B8B8B8"/><stop offset="100%" stop-color="#999999"/></linearGradient><linearGradient id="g2cjg5pqpeztr1" x1="50%" x2="50%" y1="0%" y2="100%"><stop offset="0%" stop-color="#B8B8B8"/><stop offset="100%" stop-color="#6B6B6B"/></linearGradient><linearGradient id="g2cjg5pqpeztr2" x1="50%" x2="50%" y1="0%" y2="100%"><stop offset="0%" stop-color="#7C9AB9"/><stop offset="100%" stop-color="#304D6D"/></linearGradient></defs><g><g class="title" data-source-line="3"><rect fill="url(#g2cjg5pqpeztr0)" height="47.168" rx="4.1667" ry="4.1667" style="stroke:#6B6B6B;stroke-width:1.0417;" width="521.7773" x="176.7803" y="20.8333"/><text fill="#304D6D" font-family="Verdana" font-size="20.8333" font-weight="bold" lengthAdjust="spacing" textLength="498.8607" x="188.2386" y="51.6296">Monorepo Template - System Architecture</text></g><!--cluster Monorepo\n( single Git repo )--><g class="cluster" data-entity="Monorepo\n( single Git repo )" data-source-line="7" data-uid="ent0003" id="cluster_Monorepo\n( single Git repo )"><path d="M69.8021,276.2721 L202.0002,276.2721 A6.25,6.25 0 0 1 206.1668,280.4388 L213.4585,322.0404 L580.2188,322.0404 A4.1667,4.1667 0 0 1 584.3854,326.207 L584.3854,1400.9805 A4.1667,4.1667 0 0 1 580.2188,1405.1471 L69.8021,1405.1471 A4.1667,4.1667 0 0 1 65.6354,1400.9805 L65.6354,280.4388 A4.1667,4.1667 0 0 1 69.8021,276.2721" fill="url(#g2cjg5pqpeztr1)" style="stroke:#446E9B;stroke-width:2.0833;"/><line style="stroke:#446E9B;stroke-width:2.0833;" x1="65.6354" x2="213.4585" y1="322.0404" y2="322.0404"/><text fill="#446E9B" font-family="Verdana" font-size="12.5" font-weight="bold" lengthAdjust="spacing" textLength="70.6909" x="101.5973" y="295.1666">Monorepo</text><text fill="#446E9B" font-family="Verdana" font-size="12.5" font-weight="bold" lengthAdjust="spacing" textLength="123.8647" x="75.0104" y="309.7174">( single Git repo )</text></g><!--cluster FE--><g class="cluster" data-entity="FE" data-source-line="9" data-uid="ent0004" id="cluster_FE"><rect fill="url(#g2cjg5pqpeztr1)" height="495.6771" rx="4.1667" ry="4.1667" style="stroke:#3399F3;stroke-width:2.0833;" width="232.2917" x="98.9688" y="351.2721"/><path d="M208.7425,351.2721 L208.7425,383.4987 L198.3258,393.9154 L98.9688,393.9154" fill="none" style="stroke:#3399F3;stroke-width:2.0833;"/><text fill="#3399F3" font-family="Verdana" font-size="12.5" font-weight="bold" lengthAdjust="spacing" textLength="80.2368" x="116.0057" y="369.1249">Flutter App</text><text fill="#3399F3" font-family="Verdana" font-size="12.5" font-weight="bold" lengthAdjust="spacing" textLength="76.0864" x="113.7291" y="383.6757">(guest_app)</text></g><!--cluster BE--><g class="cluster" data-entity="BE" data-source-line="17" data-uid="ent0010" id="cluster_BE"><rect fill="url(#g2cjg5pqpeztr1)" height="434.2396" rx="4.1667" ry="4.1667" style="stroke:#3399F3;stroke-width:2.0833;" width="198.9583" x="98.9688" y="937.5742"/><path d="M253.0662,937.5742 L253.0662,969.8008 L242.6496,980.2174 L98.9688,980.2174" fill="none" style="stroke:#3399F3;stroke-width:2.0833;"/><text fill="#3399F3" font-family="Verdana" font-size="12.5" font-weight="bold" lengthAdjust="spacing" textLength="83.2764" x="136.6478" y="955.427">Spring Boot</text><text fill="#3399F3" font-family="Verdana" font-size="12.5" font-weight="bold" lengthAdjust="spacing" textLength="133.2642" x="107.3021" y="969.9778">(services/backend)</text></g><!--entity Spec--><g class="entity" data-entity="Spec" data-source-line="25" data-uid="ent0016" id="entity_Spec"><rect fill="#696969" height="63.4766" rx="4.1667" ry="4.1667" style="stroke:#242424;stroke-width:1.0417;" width="130.5827" x="432.6354" y="1163.5742"/><polygon fill="#696969" points="545.5098,1168.7826,545.5098,1183.3659,558.0098,1183.3659,558.0098,1175.0326,551.7598,1168.7826,545.5098,1168.7826" style="stroke:#242424;stroke-width:1.0417;"/><line style="stroke:#242424;stroke-width:1.0417;" x1="551.7598" x2="551.7598" y1="1168.7826" y2="1175.0326"/><line style="stroke:#242424;stroke-width:1.0417;" x1="558.0098" x2="551.7598" y1="1175.0326" y2="1175.0326"/><text fill="#EEEEEE" font-family="Verdana" font-size="12.5" lengthAdjust="spacing" textLength="84.9426" x="452.2338" y="1193.927">openapi.yaml</text><text fill="#EEEEEE" font-family="Verdana" font-size="12.5" lengthAdjust="spacing" textLength="69.6167" x="448.2604" y="1208.4778">( contract )</text></g><!--entity UI--><g class="entity" data-entity="UI" data-source-line="10" data-uid="ent0005" id="entity_UI"><rect fill="url(#g2cjg5pqpeztr2)" height="56.2174" rx="4.1667" ry="4.1667" style="stroke:#304D6D;stroke-width:1.0417;" width="119.6981" x="123.4896" y="417.9388"/><rect fill="url(#g2cjg5pqpeztr2)" height="10.4167" style="stroke:#304D6D;stroke-width:1.0417;" width="15.625" x="222.3543" y="423.1471"/><rect fill="url(#g2cjg5pqpeztr2)" height="2.0833" style="stroke:#304D6D;stroke-width:1.0417;" width="4.1667" x="220.271" y="425.2305"/><rect fill="url(#g2cjg5pqpeztr2)" height="2.0833" style="stroke:#304D6D;stroke-width:1.0417;" width="4.1667" x="220.271" y="429.3971"/><text fill="#FFFFFF" font-family="Verdana" font-size="12.5" lengthAdjust="spacing" textLength="67.6147" x="144.3229" y="455.5833">UI Widgets</text></g><!--entity State--><g class="entity" data-entity="State" data-source-line="11" data-uid="ent0006" id="entity_State"><rect fill="url(#g2cjg5pqpeztr2)" height="70.7682" rx="4.1667" ry="4.1667" style="stroke:#304D6D;stroke-width:1.0417;" width="117.7389" x="129.6771" y="577.2826"/><rect fill="url(#g2cjg5pqpeztr2)" height="10.4167" style="stroke:#304D6D;stroke-width:1.0417;" width="15.625" x="226.5826" y="582.4909"/><rect fill="url(#g2cjg5pqpeztr2)" height="2.0833" style="stroke:#304D6D;stroke-width:1.0417;" width="4.1667" x="224.4993" y="584.5742"/><rect fill="url(#g2cjg5pqpeztr2)" height="2.0833" style="stroke:#304D6D;stroke-width:1.0417;" width="4.1667" x="224.4993" y="588.7409"/><text fill="#FFFFFF" font-family="Verdana" font-size="12.5" lengthAdjust="spacing" textLength="33.0872" x="150.5104" y="614.927">State</text><text fill="#FFFFFF" font-family="Verdana" font-size="12.5" lengthAdjust="spacing" textLength="65.6555" x="150.5104" y="629.4778">(Riverpod)</text></g><!--entity DartClient--><g class="entity" data-entity="DartClient" data-source-line="12" data-uid="ent0007" id="entity_DartClient"><rect fill="url(#g2cjg5pqpeztr2)" height="70.7682" rx="4.1667" ry="4.1667" style="stroke:#304D6D;stroke-width:1.0417;" width="141.7745" x="123.9063" y="751.1784"/><rect fill="url(#g2cjg5pqpeztr2)" height="10.4167" style="stroke:#304D6D;stroke-width:1.0417;" width="15.625" x="244.8474" y="756.3867"/><rect fill="url(#g2cjg5pqpeztr2)" height="2.0833" style="stroke:#304D6D;stroke-width:1.0417;" width="4.1667" x="242.7641" y="758.4701"/><rect fill="url(#g2cjg5pqpeztr2)" height="2.0833" style="stroke:#304D6D;stroke-width:1.0417;" width="4.1667" x="242.7641" y="762.6367"/><text fill="#FFFFFF" font-family="Verdana" font-size="12.5" lengthAdjust="spacing" textLength="81.7444" x="152.6864" y="788.8228">template_api</text><text fill="#FFFFFF" font-family="Verdana" font-size="12.5" lengthAdjust="spacing" textLength="75.3845" x="144.7396" y="803.3736">(Dart client)</text></g><!--entity Ctlr--><g class="entity" data-entity="Ctlr" data-source-line="18" data-uid="ent0011" id="entity_Ctlr"><rect fill="url(#g2cjg5pqpeztr2)" height="56.2174" rx="4.1667" ry="4.1667" style="stroke:#304D6D;stroke-width:1.0417;" width="128.304" x="124.3958" y="1004.2409"/><rect fill="url(#g2cjg5pqpeztr2)" height="10.4167" style="stroke:#304D6D;stroke-width:1.0417;" width="15.625" x="231.8665" y="1009.4492"/><rect fill="url(#g2cjg5pqpeztr2)" height="2.0833" style="stroke:#304D6D;stroke-width:1.0417;" width="4.1667" x="229.7832" y="1011.5326"/><rect fill="url(#g2cjg5pqpeztr2)" height="2.0833" style="stroke:#304D6D;stroke-width:1.0417;" width="4.1667" x="229.7832" y="1015.6992"/><text fill="#FFFFFF" font-family="Verdana" font-size="12.5" lengthAdjust="spacing" textLength="68.2739" x="153.1759" y="1041.8853">Controllers</text></g><!--entity Svc--><g class="entity" data-entity="Svc" data-source-line="19" data-uid="ent0012" id="entity_Svc"><rect fill="url(#g2cjg5pqpeztr2)" height="56.2174" rx="4.1667" ry="4.1667" style="stroke:#304D6D;stroke-width:1.0417;" width="123.1567" x="126.9688" y="1167.2096"/><rect fill="url(#g2cjg5pqpeztr2)" height="10.4167" style="stroke:#304D6D;stroke-width:1.0417;" width="15.625" x="229.2922" y="1172.418"/><rect fill="url(#g2cjg5pqpeztr2)" height="2.0833" style="stroke:#304D6D;stroke-width:1.0417;" width="4.1667" x="227.2088" y="1174.5013"/><rect fill="url(#g2cjg5pqpeztr2)" height="2.0833" style="stroke:#304D6D;stroke-width:1.0417;" width="4.1667" x="227.2088" y="1178.668"/><path d="M148.8438,1196.3438 L148.8438,1200.5104 L153.0104,1200.5104 L153.0104,1196.3438 L148.8438,1196.3438 M154.0521,1198.4271 L154.0521,1201.5521 L150.9271,1201.5521 L150.9271,1202.5938 L155.0938,1202.5938 L155.0938,1198.4271 L154.0521,1198.4271 M156.1354,1200.5104 L156.1354,1203.6354 L153.0104,1203.6354 L153.0104,1204.6771 L157.1771,1204.6771 L157.1771,1200.5104 L156.1354,1200.5104" fill="#FFFFFF"/><text fill="#FFFFFF" font-family="Verdana" font-size="12.5" lengthAdjust="spacing" textLength="52.71" x="166.1655" y="1204.8541">Services</text></g><!--entity Repo--><g class="entity" data-entity="Repo" data-source-line="20" data-uid="ent0013" id="entity_Repo"><rect fill="url(#g2cjg5pqpeztr2)" height="56.2174" rx="4.1667" ry="4.1667" style="stroke:#304D6D;stroke-width:1.0417;" width="127.0589" x="125.0208" y="1290.5951"/><rect fill="url(#g2cjg5pqpeztr2)" height="10.4167" style="stroke:#304D6D;stroke-width:1.0417;" width="15.625" x="231.2464" y="1295.8034"/><rect fill="url(#g2cjg5pqpeztr2)" height="2.0833" style="stroke:#304D6D;stroke-width:1.0417;" width="4.1667" x="229.1631" y="1297.8867"/><rect fill="url(#g2cjg5pqpeztr2)" height="2.0833" style="stroke:#304D6D;stroke-width:1.0417;" width="4.1667" x="229.1631" y="1302.0534"/><text fill="#FFFFFF" font-family="Verdana" font-size="12.5" lengthAdjust="spacing" textLength="67.0288" x="153.8009" y="1328.2395">Repository</text></g><!--entity Dev--><g class="entity" data-entity="Dev" data-source-line="5" data-uid="ent0002" id="entity_Dev"><ellipse cx="622.9241" cy="94.043" fill="#008080" rx="8.3333" ry="8.3333" style="stroke:#304D6D;stroke-width:1.0417;"/><path d="M622.9241,102.3763 L622.9241,130.5013 M609.3824,110.7096 L636.4657,110.7096 M622.9241,130.5013 L609.3824,146.1263 M622.9241,130.5013 L636.4657,146.1263" fill="none" style="stroke:#304D6D;stroke-width:1.0417;"/><text fill="#FFFFFF" font-family="Verdana" font-size="12.5" lengthAdjust="spacing" textLength="72.4731" x="586.6875" y="165.0208">Developer /</text><text fill="#FFFFFF" font-family="Verdana" font-size="12.5" lengthAdjust="spacing" textLength="65.5823" x="586.6875" y="179.5715">CI Pipeline</text></g><!--link UI to State--><g class="link" data-entity-1="UI" data-entity-2="State" data-source-line="13" data-uid="lnk8" id="link_UI_State"><path d="M123.1042,454.1992 C90.7396,461.4284 53.4583,476.0013 33.3438,505.4076 C23.1458,520.3138 23.3646,530.9805 33.3438,546.0326 C54.5938,578.0951 88.8986,593.0337 123.1382,601.4295" fill="none" id="UI-to-State" style="stroke:#800000;stroke-width:3.125;"/><polygon fill="#800000" points="129.2083,602.918,121.0954,596.6385,124.1499,601.6776,119.1108,604.7321,129.2083,602.918" style="stroke:#800000;stroke-width:3.125;"/><text fill="#FFFFFF" font-family="Verdana" font-size="12.5" lengthAdjust="spacing" textLength="98.8403" x="53.0764" y="523.2603">user interaction</text><text fill="#FFFFFF" font-family="Verdana" font-size="12.5" lengthAdjust="spacing" textLength="125.8057" x="39.5938" y="537.8111">(events, navigation)</text></g><!--link State to DartClient--><g class="link" data-entity-1="State" data-entity-2="DartClient" data-source-line="14" data-uid="lnk9" id="link_State_DartClient"><path d="M146.5313,648.2201 C138.1875,657.3763 130.6042,667.9076 126.0521,679.3034 C119.3438,696.0638 118.9375,703.3242 126.0521,719.9284 C130.9792,731.4492 134.648,737.4729 143.5543,746.4833" fill="none" id="State-to-DartClient" style="stroke:#000080;stroke-width:3.125;"/><polygon fill="#000080" points="147.9479,750.9284,144.3208,741.3317,144.2865,747.2242,138.3941,747.1899,147.9479,750.9284" style="stroke:#000080;stroke-width:3.125;"/><text fill="#FFFFFF" font-family="Verdana" font-size="12.5" lengthAdjust="spacing" textLength="41.3696" x="143.676" y="697.1562">invoke</text><text fill="#FFFFFF" font-family="Verdana" font-size="12.5" lengthAdjust="spacing" textLength="64.1174" x="132.3021" y="711.7069">REST calls</text></g><!--link Ctlr to Svc--><g class="link" data-entity-1="Ctlr" data-entity-2="Svc" data-source-line="21" data-uid="lnk14" id="link_Ctlr_Svc"><path d="M188.5521,1060.6784 C188.5521,1090.2617 188.5521,1130.9596 188.5521,1160.5951" fill="none" id="Ctlr-to-Svc" style="stroke:#446E9B;stroke-width:3.125;"/><polygon fill="#446E9B" points="188.5521,1166.8451,192.7188,1157.4701,188.5521,1161.6367,184.3854,1157.4701,188.5521,1166.8451" style="stroke:#446E9B;stroke-width:3.125;"/></g><!--link Svc to Repo--><g class="link" data-entity-1="Svc" data-entity-2="Repo" data-source-line="22" data-uid="lnk15" id="link_Svc_Repo"><path d="M188.5521,1223.8867 C188.5521,1243.7409 188.5521,1264.168 188.5521,1284.0013" fill="none" id="Svc-to-Repo" style="stroke:#446E9B;stroke-width:3.125;"/><polygon fill="#446E9B" points="188.5521,1290.2513,192.7188,1280.8763,188.5521,1285.043,184.3854,1280.8763,188.5521,1290.2513" style="stroke:#446E9B;stroke-width:3.125;"/></g><!--link FE to Spec--><g class="link" data-entity-1="FE" data-entity-2="Spec" data-source-line="29" data-uid="lnk17" id="link_FE_Spec"><path d="M331.5334,472.1162 C331.6667,472.5095 331.8014,472.9071 331.9374,473.309 C333.0256,476.5242 334.2016,480.0133 335.4592,483.7641 C337.9744,491.2657 340.8161,499.814 343.936,509.311 C356.4157,547.2992 373.3457,600.4668 391.6263,662.5417 C428.1875,786.6914 470.151,946.4701 492.7188,1091.6992 C496.4063,1115.4909 497.5479,1136.4606 497.9021,1156.8877" fill="none" id="FE-to-Spec" style="stroke:#008000;stroke-width:3.125;stroke-dasharray:7.0,7.0;"/><polygon fill="#008000" points="498.0104,1163.1367,502.0139,1153.6909,497.9201,1157.9292,493.6819,1153.8354,498.0104,1163.1367" style="stroke:#008000;stroke-width:3.125;"/><text fill="#FFFFFF" font-family="Verdana" font-size="12.5" lengthAdjust="spacing" textLength="71.8079" x="473.9677" y="784.1041">&#9312; generate</text><text fill="#FFFFFF" font-family="Verdana" font-size="12.5" font-weight="bold" lengthAdjust="spacing" textLength="74.6338" x="549.749" y="784.1041">Dart client</text><text fill="#FFFFFF" font-family="Verdana" font-size="12.5" lengthAdjust="spacing" textLength="196.2463" x="451.0521" y="798.6549">(scripts/generate_api_client.sh)</text></g><!--link BE to Spec--><g class="link" data-entity-1="BE" data-entity-2="Spec" data-source-line="30" data-uid="lnk18" id="link_BE_Spec"><path d="M298.0527,1110.7952 C298.1199,1110.9564 298.1876,1111.1175 298.2557,1111.2783 C299.3452,1113.8511 300.5497,1116.3687 301.8805,1118.8083 C304.542,1123.6873 307.7083,1128.2539 311.4688,1132.3242 C342.4792,1165.9076 385.9583,1180.225 426.2187,1187.2771" fill="none" id="BE-to-Spec" style="stroke:#008000;stroke-width:3.125;stroke-dasharray:7.0,7.0;"/><polygon fill="#008000" points="432.375,1188.3555,423.8595,1182.6338,427.2448,1187.4568,422.4217,1190.8421,432.375,1188.3555" style="stroke:#008000;stroke-width:3.125;"/><text fill="#FFFFFF" font-family="Verdana" font-size="12.5" lengthAdjust="spacing" textLength="71.8079" x="317.7188" y="1109.552">&#9313; generate</text><text fill="#FFFFFF" font-family="Verdana" font-size="12.5" font-weight="bold" lengthAdjust="spacing" textLength="89.3005" x="393.5" y="1109.552">Spring stubs</text><text fill="#FFFFFF" font-family="Verdana" font-size="12.5" lengthAdjust="spacing" textLength="93.8416" x="353.3389" y="1124.1028">(Maven plugin)</text></g><!--link DartClient to Ctlr--><g class="link" data-entity-1="DartClient" data-entity-2="Ctlr" data-source-line="32" data-uid="lnk19" id="link_DartClient_Ctlr"><path d="M123.6042,810.1159 C94.4479,823.2409 63.6563,843.0638 46.8854,871.9492 C16.6667,923.9596 76.4679,971.0305 128.145,1000.7597" fill="none" id="DartClient-to-Ctlr" style="stroke:#446E9B;stroke-width:3.125;"/><polygon fill="#446E9B" points="133.5625,1003.8763,127.514,995.5897,129.0479,1001.2791,123.3585,1002.813,133.5625,1003.8763" style="stroke:#446E9B;stroke-width:3.125;"/><text fill="#FFFFFF" font-family="Verdana" font-size="12.5" lengthAdjust="spacing" textLength="90.1062" x="79.8932" y="889.802">&#9314; HTTPS JSON</text><text fill="#FFFFFF" font-family="Verdana" font-size="12.5" lengthAdjust="spacing" textLength="143.6218" x="53.1354" y="904.3528">(according to contract)</text></g><!--link Dev to Spec--><g class="link" data-entity-1="Dev" data-entity-2="Spec" data-source-line="35" data-uid="lnk20" id="link_Dev_Spec"><path d="M664.6146,188.168 C708.0417,246.5013 769.8021,346.7305 769.8021,445.0117 C769.8021,445.0117 769.8021,445.0117 769.8021,1033.3867 C769.8021,1128.9596 649.966,1167.7542 569.5181,1183.5667" fill="none" id="Dev-to-Spec" style="stroke:#446E9B;stroke-width:3.125;"/><polygon fill="#446E9B" points="563.3854,1184.7721,573.388,1187.0525,568.496,1183.7676,571.7808,1178.8756,563.3854,1184.7721" style="stroke:#446E9B;stroke-width:3.125;"/><text fill="#FFFFFF" font-family="Verdana" font-size="12.5" lengthAdjust="spacing" textLength="89.9109" x="776.0521" y="697.1562">edit endpoints</text><text fill="#FFFFFF" font-family="Verdana" font-size="12.5" lengthAdjust="spacing" textLength="69.0674" x="786.4738" y="711.7069">&amp; schemas</text></g><!--link Dev to BE--><g class="link" data-entity-1="Dev" data-entity-2="BE" data-source-line="36" data-uid="lnk21" id="link_Dev_BE"><path d="M622.9271,188.1576 C622.9271,249.1992 622.9271,354.5742 622.9271,445.0117 C622.9271,445.0117 622.9271,445.0117 622.9271,787.6055 C622.9271,878.6471 540.8906,939.3346 458.2122,977.3789 C416.873,996.401 375.3734,1009.7624 343.8875,1018.4268 C328.1446,1022.759 314.9052,1025.9169 305.4409,1028.0211 C303.0749,1028.5472 300.9448,1029.0074 299.0705,1029.4036 C298.8362,1029.4531 304.7224,1028.2167 304.4962,1028.2642" fill="none" id="Dev-to-BE" style="stroke:#446E9B;stroke-width:3.125;"/><polygon fill="#446E9B" points="298.3797,1029.5492,308.4111,1031.6994,303.4768,1028.4784,306.6978,1023.5441,298.3797,1029.5492" style="stroke:#446E9B;stroke-width:3.125;"/><text fill="#FFFFFF" font-family="Verdana" font-size="12.5" lengthAdjust="spacing" textLength="58.6731" x="639.6782" y="610.2083">PR / push</text><text fill="#FFFFFF" font-family="Verdana" font-size="12.5" lengthAdjust="spacing" textLength="79.6753" x="629.1771" y="624.759">build + tests</text></g><!--link Dev to FE--><g class="link" data-entity-1="Dev" data-entity-2="FE" data-source-line="37" data-uid="lnk22" id="link_Dev_FE"><path d="M581.1458,161.7513 C557.3229,176.7409 527.6354,197.168 504.1771,218.9805 C457.7552,262.1263 413.1198,317.556 379.7591,362.7253 C363.0788,385.3099 349.2171,405.3294 339.3602,419.9658 C336.896,423.6249 334.682,426.9476 332.7369,429.8897 C332.2506,430.6253 335.2174,426.1165 334.765,426.8037" fill="none" id="Dev-to-FE" style="stroke:#446E9B;stroke-width:3.125;"/><polygon fill="#446E9B" points="331.3288,432.0243,339.9635,426.4843,334.1923,427.6738,333.0027,421.9026,331.3288,432.0243" style="stroke:#446E9B;stroke-width:3.125;"/><text fill="#FFFFFF" font-family="Verdana" font-size="12.5" lengthAdjust="spacing" textLength="58.6731" x="520.9282" y="236.8333">PR / push</text><text fill="#FFFFFF" font-family="Verdana" font-size="12.5" lengthAdjust="spacing" textLength="79.6753" x="510.4271" y="251.384">build + tests</text></g><!--SRC=[pLJRQXin47tVhvZQuDPkrtuFmP0ubwQGDjWEVOX3aENnMaGh2MdMgGc5_aAX7z3sq_8b7MatYKdRlBOWM5OwEaTpvaWlQ8KbGd12eXRpB2D56g7NExN6UdGMfbWwBGWXXyac49Qmv-LA4KggFFPwMIOaMG-j0roZjWuz36PcT09dog5M1biW0l0YjASeT9QnrBKe45ht4ZFp2e8o1UiUAuAasct1RGR0O-a57x2rsodjN6aS0XpfYeXbzfpZhKvfIrV2kMuIEZfC6m6aBPqrQ0XQvoVmKIqAf90WvoTF0HFY0fbhhDRedLtKL6dsANItin0avYB4ar3Z3SihtduWF87KYe4rGvmOfVz4m-V8BzgbyDQQotnO2y0EL86hKOPhOYkLDKp5NXeARy28jIf4dEmcYdeBi_329d8yIZ2HCcjxpOMC3oTJa4Bhm9i-PzikiXJNo6UVEC-Umxwrn7fnMaaCWpbt1qtZmFuVpDpj52WYmSWQybPhzBMj8zB-Tx0M6mP4lKQXjdOjdpLsp1a8YcErIV3uc_1H0_9eNKF0t_JV85Ajx8XQifEHSycHoGa_KMw7mE4qtAd-HfGwXax62YAmwRT32Uq3LHvxiScOwkNTbsyFWvqcaI-rlM41Rsy2RA_-gy5NX1FVlsWN7j5SzeTr5Jjmz_Kx56WuKXIlyrOqUxtOR-cLep2uXyG4NzNh_R3gPlj_8VsnJTf4A50r3udrL71imUcgK9pNR2kRiKUfUP7a9xoTJiycy6xouJtl4b9QluXCP1zwqdrgFxyehdbH_XVduwEMmbYxWmj-lVZkECjtESnC1uBarrM41o2xkWDdOnY0gy9gPkQLqWjupUz8e4VKqNEeNm00]--></g></svg>
